<svg width="0" height="0" version="1.1" xmlns="http://www.w3.org/2000/svg" xmlns:xlink="http://www.w3.org/1999/xlink">
<defs>
<symbol id="icon-couch" viewBox="0 0 1024 1024">
	<title>couch</title>
	<path class="path1" d="M230.4 972.8h-51.2c-14.138 0-25.6-11.461-25.6-25.6s11.462-25.6 25.6-25.6h51.2c14.138 0 25.6 11.461 25.6 25.6s-11.462 25.6-25.6 25.6z"></path>
	<path class="path2" d="M844.8 972.8h-51.2c-14.139 0-25.6-11.461-25.6-25.6s11.461-25.6 25.6-25.6h51.2c14.139 0 25.6 11.461 25.6 25.6s-11.461 25.6-25.6 25.6z"></path>
	<path class="path3" d="M921.234 360.91c-3.931-128.624-41.493-210.912-117.36-257.877-69.722-43.163-163.373-51.834-291.874-51.834s-222.15 8.67-291.875 51.834c-75.867 46.965-113.429 129.253-117.36 257.877-58.534 11.752-102.765 63.547-102.765 125.49 0 61.813 44.048 113.534 102.4 125.429v232.971c0 42.349 34.453 76.8 76.8 76.8h665.6c42.349 0 76.8-34.451 76.8-76.8v-232.971c58.352-11.894 102.4-63.616 102.4-125.429 0-61.942-44.232-113.738-102.766-125.49zM247.075 146.566c59.411-36.778 145.416-44.166 264.925-44.166s205.514 7.389 264.925 44.166c59.691 36.952 89.528 105.419 93.104 214.486-58.17 12.037-102.029 63.664-102.029 125.347v76.8h-512v-76.8c0-61.683-43.859-113.31-102.030-125.347 3.578-109.067 33.416-177.534 93.106-214.486zM256 614.4h512v76.8c0 14.115-11.485 25.6-25.6 25.6h-460.8c-14.115 0-25.6-11.485-25.6-25.6v-76.8zM896 563.2c-14.139 0-25.6 11.461-25.6 25.6v256c0 14.115-11.485 25.6-25.6 25.6h-665.6c-14.115 0-25.6-11.485-25.6-25.6v-256c0-14.139-11.462-25.6-25.6-25.6-42.347 0-76.8-34.451-76.8-76.8 0-42.347 34.453-76.8 76.8-76.8s76.8 34.453 76.8 76.8v204.8c0 42.349 34.453 76.8 76.8 76.8h460.8c42.349 0 76.8-34.451 76.8-76.8v-204.8c0-42.347 34.451-76.8 76.8-76.8s76.8 34.453 76.8 76.8c0 42.349-34.451 76.8-76.8 76.8z"></path>
	<path class="path4" d="M793.6 307.2h-25.6c-56.464 0-102.4-45.936-102.4-102.4v-25.6c0-14.138-11.461-25.6-25.6-25.6s-25.6 11.462-25.6 25.6v25.6c0 56.464-45.936 102.4-102.4 102.4s-102.4-45.936-102.4-102.4v-25.6c0-14.138-11.462-25.6-25.6-25.6s-25.6 11.462-25.6 25.6v25.6c0 56.464-45.936 102.4-102.4 102.4h-25.6c-14.138 0-25.6 11.462-25.6 25.6s11.462 25.6 25.6 25.6h25.6c56.464 0 102.4 45.936 102.4 102.4v25.6c0 14.139 11.462 25.6 25.6 25.6s25.6-11.461 25.6-25.6v-25.6c0-56.464 45.936-102.4 102.4-102.4s102.4 45.936 102.4 102.4v25.6c0 14.139 11.461 25.6 25.6 25.6s25.6-11.461 25.6-25.6v-25.6c0-56.464 45.936-102.4 102.4-102.4h25.6c14.139 0 25.6-11.462 25.6-25.6s-11.461-25.6-25.6-25.6zM384 375.995c-11.374-17.11-26.083-31.819-43.195-43.195 17.11-11.374 31.819-26.083 43.195-43.195 11.374 17.11 26.083 31.819 43.195 43.195-17.112 11.374-31.821 26.083-43.195 43.195zM640 375.995c-11.374-17.11-26.083-31.819-43.195-43.195 17.112-11.374 31.821-26.083 43.195-43.195 11.374 17.11 26.083 31.819 43.195 43.195-17.112 11.374-31.821 26.083-43.195 43.195z"></path>
</symbol>
<symbol id="icon-palette" viewBox="0 0 1024 1024">
	<title>palette</title>
	<path class="path1" d="M332.8 409.6c-42.347 0-76.8-34.453-76.8-76.8s34.453-76.8 76.8-76.8 76.8 34.453 76.8 76.8-34.453 76.8-76.8 76.8zM332.8 307.2c-14.115 0-25.6 11.485-25.6 25.6s11.485 25.6 25.6 25.6 25.6-11.485 25.6-25.6-11.485-25.6-25.6-25.6z"></path>
	<path class="path2" d="M179.2 563.2c-42.347 0-76.8-34.451-76.8-76.8 0-42.347 34.453-76.8 76.8-76.8s76.8 34.453 76.8 76.8c0 42.349-34.453 76.8-76.8 76.8zM179.2 460.8c-14.115 0-25.6 11.485-25.6 25.6s11.485 25.6 25.6 25.6 25.6-11.485 25.6-25.6-11.485-25.6-25.6-25.6z"></path>
	<path class="path3" d="M537.6 358.4c-42.347 0-76.8-34.453-76.8-76.8s34.453-76.8 76.8-76.8c42.349 0 76.8 34.453 76.8 76.8s-34.451 76.8-76.8 76.8zM537.6 256c-14.115 0-25.6 11.485-25.6 25.6s11.485 25.6 25.6 25.6 25.6-11.485 25.6-25.6-11.485-25.6-25.6-25.6z"></path>
	<path class="path4" d="M512 972.8c-135.947 0-263.949-44.744-360.427-125.987-47.341-39.866-84.562-86.392-110.627-138.288-27.17-54.094-40.946-111.603-40.946-170.925s13.776-116.83 40.947-170.925c26.066-51.896 63.286-98.422 110.627-138.288 96.477-81.245 224.478-125.987 360.426-125.987s263.949 44.742 360.427 125.987c47.341 39.866 84.562 86.392 110.627 138.288 27.17 54.094 40.946 111.603 40.946 170.925 0 94.829-42.234 128.618-81.758 128.618-33.035 0-67.040-23.126-93.296-63.448-16.571-25.461-34.080-39.48-49.301-39.48-5.082 0-10.088 1.518-15.306 4.642-28.771 17.226-11.758 63.736 0.946 89.928 41.061 84.669 44.467 158.632 9.85 213.891-42.002 67.051-137.262 101.050-283.134 101.050zM512 153.6c-254.086 0-460.8 172.262-460.8 384s206.714 384 460.8 384c69.928 0 126.646-8.144 168.578-24.203 33.24-12.731 57.184-30.504 71.166-52.827 31.298-49.963 10.461-116.962-12.53-164.368-49.166-101.374-3.214-143.006 18.826-156.202 13.206-7.902 27.203-11.91 41.605-11.91 23.435 0 58.456 10.886 92.211 62.747 19.309 29.656 39.211 40.181 50.386 40.181 18.277 0 30.558-31.114 30.558-77.418 0-211.738-206.714-384-460.8-384z"></path>
	<path class="path5" d="M563.2 819.2c-56.464 0-102.4-45.936-102.4-102.4s45.936-102.4 102.4-102.4c56.464 0 102.4 45.936 102.4 102.4s-45.936 102.4-102.4 102.4zM563.2 665.6c-28.232 0-51.2 22.968-51.2 51.2s22.968 51.2 51.2 51.2 51.2-22.968 51.2-51.2-22.968-51.2-51.2-51.2z"></path>
</symbol>
<symbol id="icon-tornado" viewBox="0 0 1024 1024">
	<title>tornado</title>
	<path class="path1" d="M512 256c-131.642 0-255.659-10.846-349.21-30.541-46.797-9.851-83.931-21.52-110.373-34.682-34.782-17.312-52.418-38.434-52.418-62.778s17.635-45.466 52.416-62.776c26.443-13.162 63.578-24.83 110.373-34.682 93.552-19.696 217.57-30.542 349.211-30.542 62.6 0 123.608 2.443 181.33 7.262 14.090 1.176 24.558 13.552 23.381 27.64s-13.544 24.562-27.64 23.381c-56.31-4.699-115.886-7.083-177.070-7.083-122.019 0-238.096 9.603-326.85 27.040-109.504 21.515-130.429 45.098-133.571 49.76 3.142 4.662 24.067 28.245 133.57 49.76 88.755 17.437 204.832 27.040 326.851 27.040s238.098-9.603 326.85-27.040c116.019-22.795 132.605-47.912 133.958-50.387 0.333-13.848 11.664-24.973 25.592-24.973 14.139 0 25.6 11.462 25.6 25.6 0 24.344-17.635 45.466-52.418 62.776-26.442 13.162-63.576 24.83-110.371 34.682-93.552 19.696-217.571 30.542-349.211 30.542z"></path>
	<path class="path2" d="M460.8 870.4c-65.045 0-126.597-11.434-173.314-32.198-53.322-23.699-82.686-57.72-82.686-95.802 0-14.139 11.462-25.6 25.6-25.6s25.6 11.461 25.6 25.6c0 15.901 20.034 34.683 52.28 49.014 40.315 17.918 94.482 27.786 152.52 27.786s112.205-9.867 152.52-27.786c32.246-14.331 52.28-33.114 52.28-49.014 0-14.139 11.461-25.6 25.6-25.6s25.6 11.461 25.6 25.6c0 38.082-29.366 72.102-82.686 95.802-46.717 20.765-108.269 32.198-173.314 32.198z"></path>
	<path class="path3" d="M512 1024c-114.842 0-204.8-56.226-204.8-128 0-14.139 11.462-25.6 25.6-25.6s25.6 11.461 25.6 25.6c0 36.325 63.082 76.8 153.6 76.8s153.6-40.475 153.6-76.8c0-14.139 11.461-25.6 25.6-25.6s25.6 11.461 25.6 25.6c0 71.774-89.96 128-204.8 128z"></path>
	<path class="path4" d="M460.8 563.2c-104.733 0-203.507-10.958-278.125-30.856-87.242-23.266-131.475-55.949-131.475-97.144 0-14.138 11.462-25.6 25.6-25.6s25.6 11.462 25.6 25.6c0 4.805 15.862 26.978 93.467 47.672 70.437 18.784 164.526 29.128 264.933 29.128s194.496-10.344 264.933-29.128c77.605-20.694 93.467-42.867 93.467-47.672 0-14.138 11.461-25.6 25.6-25.6s25.6 11.462 25.6 25.6c0 41.195-44.234 73.878-131.475 97.144-74.618 19.898-173.39 30.856-278.125 30.856z"></path>
	<path class="path5" d="M435.2 716.8c-84.734 0-164.755-11.117-225.318-31.306-88.835-29.611-107.482-68.928-107.482-96.694 0-14.139 11.462-25.6 25.6-25.6s25.6 11.461 25.6 25.6c0 8.29 15.147 29.014 72.472 48.122 55.482 18.494 129.75 28.678 209.128 28.678s153.646-10.184 209.128-28.678c57.325-19.107 72.472-39.832 72.472-48.122 0-14.139 11.461-25.6 25.6-25.6s25.6 11.461 25.6 25.6c0 27.766-18.646 67.083-107.482 96.694-60.563 20.189-140.582 31.306-225.318 31.306z"></path>
	<path class="path6" d="M486.4 409.6c-124.896 0-242.586-10.867-331.389-30.602-104.307-23.179-155.011-55.038-155.011-97.398 0-14.138 11.462-25.6 25.6-25.6 14.038 0 25.438 11.301 25.598 25.302 2.202 6.766 29.338 29.842 124.394 49.758 84.139 17.63 194.518 27.339 310.808 27.339s226.669-9.709 310.808-27.338c95.056-19.917 122.19-42.994 124.394-49.758 0.16-14.003 11.56-25.304 25.598-25.304 14.139 0 25.6 11.462 25.6 25.6 0 42.36-50.704 74.219-155.013 97.398-88.802 19.734-206.491 30.602-331.387 30.602z"></path>
</symbol>
<symbol id="icon-paper-plane" viewBox="0 0 1024 1024">
	<title>paper-plane</title>
	<path class="path1" d="M1015.456 57.709c-7.371-6.587-17.877-8.341-26.99-4.502l-972.8 409.6c-9.822 4.136-16.056 13.925-15.646 24.576 0.41 10.65 7.374 19.933 17.486 23.302l289.694 96.566v288.749c0 10.835 6.822 20.499 17.034 24.125 2.805 0.995 5.698 1.477 8.562 1.477 7.562 0 14.917-3.358 19.874-9.458l141.472-174.12 230.27 227.392c4.851 4.79 11.339 7.384 17.989 7.384 2.133 0 4.283-0.267 6.402-0.814 8.72-2.253 15.616-8.922 18.157-17.563l256-870.4c2.792-9.483-0.13-19.726-7.502-26.314zM825.862 177.224l-497.882 382.986-229.79-76.597 727.672-306.389zM358.4 601.405l482.062-370.816-368.346 453.347c-0.011 0.013-0.022 0.027-0.034 0.040l-113.683 139.92v-222.491zM729.922 898.899l-203.342-200.8 411.28-506.192-207.938 706.992z"></path>
</symbol>
</defs>
</svg>
