<svg style="position: absolute; width: 0; height: 0;" width="0" height="0" version="1.1" xmlns="http://www.w3.org/2000/svg" xmlns:xlink="http://www.w3.org/1999/xlink">
<defs>
<symbol id="icon-heart" viewBox="0 0 1024 1024">
    <title>heart</title>
    <path fill="#444444" class="path1" d="M486.4 972.8c-4.283 0-8.566-1.074-12.434-3.222-4.808-2.67-119.088-66.624-235.122-171.376-68.643-61.97-123.467-125.363-162.944-188.418-50.365-80.443-75.901-160.715-75.901-238.584 0-148.218 120.582-268.8 268.8-268.8 50.173 0 103.462 18.805 150.051 52.952 27.251 19.973 50.442 44.043 67.549 69.606 17.107-25.565 40.299-49.634 67.55-69.606 46.589-34.147 99.878-52.952 150.050-52.952 148.218 0 268.8 120.582 268.8 268.8 0 77.869-25.538 158.141-75.901 238.584-39.478 63.054-94.301 126.446-162.944 188.418-116.034 104.754-230.314 168.706-235.122 171.376-3.867 2.149-8.15 3.222-12.434 3.222zM268.8 153.6c-119.986 0-217.6 97.614-217.6 217.6 0 155.624 120.302 297.077 221.224 388.338 90.131 81.504 181.44 138.658 213.976 158.042 32.536-19.384 123.845-76.538 213.976-158.042 100.922-91.261 221.224-232.714 221.224-388.338 0-119.986-97.616-217.6-217.6-217.6-87.187 0-171.856 71.725-193.314 136.096-3.485 10.453-13.267 17.504-24.286 17.504s-20.802-7.051-24.286-17.504c-21.456-64.371-106.125-136.096-193.314-136.096z"></path>
</symbol>
<symbol id="icon-star" viewBox="0 0 1024 1024">
    <title>star</title>
    <path fill="#444444" class="path1" d="M793.598 972.8c-4.205 0-8.422-1.034-12.258-3.126l-269.341-146.912-269.341 146.912c-8.598 4.691-19.118 4.061-27.098-1.613-7.981-5.677-12.022-15.41-10.413-25.069l49.034-294.206-195.483-195.485c-6.781-6.781-9.203-16.782-6.277-25.914s10.712-15.862 20.17-17.438l294.341-49.058 122.17-244.339c4.336-8.674 13.2-14.152 22.898-14.152s18.562 5.478 22.898 14.152l122.17 244.339 294.341 49.058c9.459 1.576 17.243 8.307 20.17 17.438s0.504 19.133-6.277 25.914l-195.483 195.485 49.034 294.206c1.61 9.659-2.434 19.392-10.413 25.069-4.419 3.144-9.621 4.739-14.84 4.739zM512 768c4.219 0 8.437 1.042 12.259 3.126l235.445 128.426-42.557-255.344c-1.36-8.155 1.302-16.464 7.15-22.309l169.626-169.626-258.131-43.022c-8.080-1.346-15.027-6.477-18.69-13.803l-105.102-210.205-105.102 210.205c-3.664 7.326-10.61 12.458-18.69 13.803l-258.131 43.022 169.624 169.626c5.846 5.845 8.509 14.155 7.15 22.309l-42.557 255.344 235.446-128.426c3.821-2.085 8.040-3.126 12.259-3.126z"></path>
</symbol>
</defs>
</svg>

